<svg id="Group_12" data-name="Group 12" xmlns="http://www.w3.org/2000/svg" xmlns:xlink="http://www.w3.org/1999/xlink" width="67.54" height="60.691" viewBox="0 0 67.54 60.691">
  <defs>
    <clipPath id="clip-path">
      <rect id="Rectangle_6" data-name="Rectangle 6" width="67.54" height="60.691" fill="none"/>
    </clipPath>
  </defs>
  <g id="Group_11" data-name="Group 11" clip-path="url(#clip-path)">
    <path id="Path_24" data-name="Path 24" d="M67.54,34.428A2.054,2.054,0,0,1,65.446,35.9c-.9.04-1.8.144-2.688.266a.761.761,0,0,0-.485.4c-.5,1.1-.938,2.22-1.44,3.315a.738.738,0,0,0,.1.935c.627.706,1.223,1.441,1.813,2.179a1.776,1.776,0,0,1-.137,2.69q-2.106,2.137-4.241,4.244a1.768,1.768,0,0,1-2.641.135c-.773-.617-1.512-1.276-2.295-1.879a.806.806,0,0,0-.668-.094c-1.123.435-2.218.943-3.346,1.364a.791.791,0,0,0-.6.8c-.06.92-.158,1.838-.253,2.756a1.8,1.8,0,0,1-2.077,1.861c-1.538.006-3.077,0-4.615,0h-.723c0,1.3.012,2.543-.008,3.788a2.685,2.685,0,0,1-.181,1.022,1.687,1.687,0,0,1-1.9.972,1.783,1.783,0,0,1-1.338-1.811q-.009-6.627,0-13.253V44.78c-.264-.016-.456-.037-.648-.037-3.714,0-7.429.008-11.143-.013a.69.69,0,0,0-.782.568,8.932,8.932,0,0,1-16.921-.032c-.172-.513-.45-.528-.869-.53a7.054,7.054,0,0,1-7.131-5.4,5.983,5.983,0,0,1-.2-1.364c-.025-1.626-.052-3.254-.006-4.879A7.09,7.09,0,0,1,5.479,26.25c3.68-1.017,7.367-2.005,11.043-3.035a1.909,1.909,0,0,0,.936-.62c2.381-3.074,4.678-6.215,7.114-9.245A8.139,8.139,0,0,1,30.9,10.3c2-.061,4-.019,6-.023h.821V9.546q0-3.791,0-7.583a1.729,1.729,0,1,1,3.426,0c.007,1.6,0,3.2,0,4.888h2.8c.9,0,1.8-.011,2.7,0A1.736,1.736,0,0,1,48.561,8.6c.1.961.195,1.923.267,2.887a.716.716,0,0,0,.535.71c1.144.442,2.258.96,3.4,1.407a.817.817,0,0,0,.673-.111c.767-.588,1.493-1.228,2.246-1.835a1.769,1.769,0,0,1,2.688.126Q60.5,13.9,62.589,16.051a1.775,1.775,0,0,1,.12,2.644c-.354.448-.729.88-1.093,1.32-.349.423-.7.848-.982,1.2.554,1.383,1.07,2.707,1.626,4.014a.768.768,0,0,0,.542.335c.893.115,1.79.222,2.688.259a2.132,2.132,0,0,1,2.049,1.353ZM7.8,41.26a9.1,9.1,0,0,1,2.89-5.488,8.23,8.23,0,0,1,5.734-2.308c5.152.085,8.1,2.91,9.227,7.8h12.03V13.717c-2.033,0-4.029.028-6.023-.008a5.755,5.755,0,0,0-4.982,2.45c-2.272,3.02-4.588,6.007-6.862,9.025a3.166,3.166,0,0,1-1.811,1.207c-3.879,1.035-7.752,2.1-11.624,3.16A3.711,3.711,0,0,0,3.434,33.4c-.006,1.3,0,2.594,0,3.89.006,2.631,1.65,4.161,4.372,3.971M64.087,29.128c-1.017-.1-2.016-.214-3.018-.3a1.913,1.913,0,0,1-1.862-1.643,15.922,15.922,0,0,0-1.995-4.776,1.878,1.878,0,0,1,.217-2.729c.6-.722,1.191-1.446,1.709-2.076l-2.4-2.369c.035-.021-.005,0-.039.024-.61.5-1.217,1.01-1.828,1.513-1.26,1.038-1.636,1-3.071.281a36.008,36.008,0,0,0-4.349-1.829c-1.457-.5-1.8-.814-1.928-2.346-.072-.849-.165-1.7-.25-2.556H41.191v9.623A11.162,11.162,0,0,1,54.6,29.983a10.7,10.7,0,0,1-2.756,8.2A10.986,10.986,0,0,1,41.189,41.7V51.4h4.032A.782.782,0,0,0,45.3,51.2c.092-.918.162-1.838.271-2.753a1.825,1.825,0,0,1,1.666-1.9,16.649,16.649,0,0,0,4.658-1.94c1.271-.782,1.741-.731,2.893.216.69.567,1.383,1.13,2.012,1.644l2.411-2.417c-.607-.736-1.247-1.516-1.892-2.292a1.814,1.814,0,0,1-.172-2.31,18.152,18.152,0,0,0,2.181-5.126,1.756,1.756,0,0,1,1.829-1.49c.975-.093,1.949-.2,2.931-.3ZM41.153,38.078c.154.059.254.108.359.136A7.659,7.659,0,1,0,41.736,23.4c-.424.109-.62.259-.6.743.045.964.013,1.931.013,2.9V38.078M22.2,42.428a5.519,5.519,0,1,0-5.534,5.524A5.529,5.529,0,0,0,22.2,42.428" transform="translate(0 0)"/>
  </g>
</svg>
