<svg id="Group_18" data-name="Group 18" xmlns="http://www.w3.org/2000/svg" xmlns:xlink="http://www.w3.org/1999/xlink" width="30.907" height="71.843" viewBox="0 0 30.907 71.843">
  <defs>
    <clipPath id="clip-path">
      <rect id="Rectangle_9" data-name="Rectangle 9" width="30.907" height="71.843" fill="none"/>
    </clipPath>
  </defs>
  <g id="Group_17" data-name="Group 17" clip-path="url(#clip-path)">
    <path id="Path_42" data-name="Path 42" d="M1.7,71.842A2.628,2.628,0,0,1,0,69.029Q.04,48.257.008,27.485A15.776,15.776,0,0,1,3.98,16.55a1.815,1.815,0,0,0,.38-.8A39.022,39.022,0,0,1,7.331,6.5a12.683,12.683,0,0,1,4.427-5.412,7.025,7.025,0,0,1,9.189,1.476,1.071,1.071,0,0,1,.026,1.462,1.047,1.047,0,0,1-1.457.048,13.165,13.165,0,0,0-2.149-1.541c-2.189-1-4.281-.345-6.108,1.765a3.417,3.417,0,0,0,2.223,1.964c.371.139.756.247,1.118.4a1.439,1.439,0,0,1,.9,1.388,1.464,1.464,0,0,1-.9,1.46,9.788,9.788,0,0,1-1.119.4,3.66,3.66,0,0,0-2.476,2.473c-.111.332-.209.669-.336,1a1.5,1.5,0,0,1-1.453,1.027A1.5,1.5,0,0,1,7.7,13.378c-.1-.26-.195-.523-.367-.986-.249.989-.474,1.8-.654,2.618a60.933,60.933,0,0,0-1.46,11.67,10.822,10.822,0,0,0,6.425,10.242A10.016,10.016,0,0,0,24.57,31.809a10.447,10.447,0,0,0,1.1-5.158c-.181-2.935-.469-5.863-.712-8.794l-.324-.121a8.956,8.956,0,0,0-.995,1.21,10.423,10.423,0,0,0-.614,1.558,1.666,1.666,0,0,1-1.6,1.228A1.643,1.643,0,0,1,19.9,20.5c-.08-.219-.154-.441-.219-.665a3.9,3.9,0,0,0-2.988-2.758c-1.061-.291-1.5-.782-1.539-1.57a1.48,1.48,0,0,1,.9-1.523,5.228,5.228,0,0,1,.79-.281,3.874,3.874,0,0,0,2.887-2.866c.012-.045.033-.088.047-.132.494-1.547,1.121-1.876,2.737-1.361-.286-.666-.56-1.274-.809-1.892-.288-.715-.1-1.316.47-1.55s1.12.021,1.456.719a41.784,41.784,0,0,1,2.91,9.049,2.311,2.311,0,0,0,.473.979A15.18,15.18,0,0,1,30.875,26.7c.049,3.929.017,7.86.012,11.789,0,.817-.417,1.313-1.055,1.312s-1.031-.493-1.047-1.317c0-.164,0-.327,0-.491,0-3.556.072-7.113-.033-10.666a33.68,33.68,0,0,0-.7-4.761,3.3,3.3,0,0,0-.6-1.239c.1,1.431.216,2.862.3,4.295A13.2,13.2,0,0,1,23.61,36.583,12.016,12.016,0,0,1,5.749,34.889a13.229,13.229,0,0,1-2.621-8.472c.057-1.7.2-3.4.317-5.223a11.079,11.079,0,0,0-1.178,3.87,15.442,15.442,0,0,0-.139,2.028q-.012,20.983-.006,41.965v.679H4.358c.421,0,.843.012,1.263,0,.6-.021,1.154.082,1.373.723s-.152,1.062-.664,1.385ZM21.389,12.334a5.689,5.689,0,0,1-3.123,3.088,5.691,5.691,0,0,1,3.187,3.165,6.083,6.083,0,0,1,2.98-3.122,14.857,14.857,0,0,1-1.726-1.334,16.052,16.052,0,0,1-1.318-1.8M9.766,6.309c-.455.995-.943,2.042-1.408,3.1a.578.578,0,0,0,.041.447c.247.444.527.869.838,1.373A5.582,5.582,0,0,1,12.2,8.154L9.766,6.309" transform="translate(0 0)"/>
    <path id="Path_43" data-name="Path 43" d="M52.927,268.486c-.42-.385-.831-.78-.565-1.428s.813-.681,1.4-.68q8.594.008,17.187,0h.922v-.87q0-12.662,0-25.325c0-1.09.319-1.588,1.025-1.6.734-.016,1.08.5,1.08,1.625,0,8.488-.016,16.977.017,25.465a2.631,2.631,0,0,1-1.7,2.813Z" transform="translate(-43.088 -196.644)"/>
    <path id="Path_44" data-name="Path 44" d="M52.685,123.455a1.469,1.469,0,0,1,1.448.909,9.782,9.782,0,0,1,.378,1.053,3.717,3.717,0,0,0,2.57,2.558c.267.086.538.16.8.26a1.561,1.561,0,0,1,1.145,1.51,1.6,1.6,0,0,1-1.171,1.57,5.487,5.487,0,0,1-.535.167,3.809,3.809,0,0,0-2.885,2.858c-.247.917-.617,1.7-1.708,1.753-.839.044-1.338-.454-1.746-1.783a3.913,3.913,0,0,0-2.916-2.837,3.838,3.838,0,0,1-.85-.317,1.582,1.582,0,0,1,.02-2.792,1.863,1.863,0,0,1,.451-.191,4.281,4.281,0,0,0,3.456-3.444,1.492,1.492,0,0,1,1.543-1.275m.079,3.248a14.673,14.673,0,0,1-1.335,1.8,14.448,14.448,0,0,1-1.778,1.312,5.846,5.846,0,0,1,3.074,3.171,5.822,5.822,0,0,1,3.153-3.244,5.592,5.592,0,0,1-3.114-3.037" transform="translate(-38.233 -101.753)"/>
    <path id="Path_45" data-name="Path 45" d="M47.589,318.15a22.335,22.335,0,0,1-7.181-1.095,7.18,7.18,0,0,1-.774-.325,1.1,1.1,0,0,1-.687-1.471,1.06,1.06,0,0,1,1.5-.462,17.169,17.169,0,0,0,6.782,1.23,17.635,17.635,0,0,0,7.207-1.2,1.1,1.1,0,0,1,1.566.43c.271.581,0,1.167-.743,1.5a19.872,19.872,0,0,1-7.665,1.4" transform="translate(-32.019 -259.353)"/>
    <path id="Path_46" data-name="Path 46" d="M53.723,284.108c1.964,0,3.929,0,5.893,0,.878,0,1.37.392,1.363,1.057s-.5,1.044-1.383,1.045q-5.929.006-11.857,0c-.875,0-1.368-.4-1.363-1.065s.493-1.035,1.383-1.037q2.982-.006,5.964,0" transform="translate(-38.224 -234.165)"/>
  </g>
</svg>
