<svg xmlns="http://www.w3.org/2000/svg" width="52.501" height="56.538" viewBox="0 0 52.501 56.538">
  <g id="clean" transform="translate(-4.499 -2.25)">
    <path id="Path_13" data-name="Path 13" d="M34.615,24.288H22.5V20.25H34.615Z" transform="translate(14.308 14.308)"/>
    <path id="Path_14" data-name="Path 14" d="M39.115,33.288H27V29.25H39.115Z" transform="translate(17.885 21.461)"/>
    <path id="Path_15" data-name="Path 15" d="M36.865,28.788H24.75V24.75H36.865Z" transform="translate(16.097 17.884)"/>
    <path id="Path_16" data-name="Path 16" d="M30.756,38.6A9.884,9.884,0,0,0,25.9,30.169l14.944-25.9L37.354,2.25l-15.3,26.5A11.507,11.507,0,0,0,11.468,31.79C3.907,39.081,4.492,56.126,4.52,56.85A2.019,2.019,0,0,0,6.54,58.788H36.81a2.019,2.019,0,0,0,1.212-3.635C30.874,49.791,30.756,38.705,30.756,38.6ZM20.513,32.533A6.28,6.28,0,0,1,26.721,38.6c0,.077,0,.42.034.948l-11.914-5.3a7.673,7.673,0,0,1,5.672-1.712ZM27.62,54.75a10.5,10.5,0,0,1-2.927-6.058H20.654a13.126,13.126,0,0,0,1.955,6.058H18.12a33.553,33.553,0,0,1-1.5-8.077H12.577A35.018,35.018,0,0,0,13.92,54.75H8.539c.063-3.708.585-11.9,3.64-17.27L27.39,44.244A26.3,26.3,0,0,0,31.955,54.75Z" transform="translate(0 0)"/>
  </g>
</svg>
