<svg id="Group_8" data-name="Group 8" xmlns="http://www.w3.org/2000/svg" xmlns:xlink="http://www.w3.org/1999/xlink" width="58.773" height="58.911" viewBox="0 0 58.773 58.911">
  <defs>
    <clipPath id="clip-path">
      <rect id="Rectangle_4" data-name="Rectangle 4" width="58.773" height="58.911" fill="none"/>
    </clipPath>
  </defs>
  <g id="Group_7" data-name="Group 7" clip-path="url(#clip-path)">
    <path id="Path_20" data-name="Path 20" d="M5.168,0H7.35c.107.131.2.271.323.39Q18.327,11.07,28.985,21.746c.119.119.246.229.383.356a6.166,6.166,0,0,0,2.473-4.2A9.607,9.607,0,0,1,35,11.586C38.721,7.938,42.374,4.222,46.055.535c.157-.157.321-.308.449-.431l2.441,2.442-9.223,9.241,2.487,2.478,9.148-9.18,2.477,2.454L44.67,16.731l2.378,2.392,9.162-9.2,2.411,2.421a.406.406,0,0,1-.062.077q-6.007,6.021-12.02,12.037a8.249,8.249,0,0,1-5.351,2.477,6.332,6.332,0,0,0-4.553,2.649,4,4,0,0,1,.561.4q9.932,9.939,19.853,19.889c2.436,2.445,2.282,6.051-.4,8A11.553,11.553,0,0,1,54.2,58.911H52.825a7.915,7.915,0,0,1-4.041-2.662q-9.437-9.5-18.907-18.966a5,5,0,0,1-.467-.7c-.278.357-.4.556-.562.717Q19.009,47.17,9.164,57.034a5.73,5.73,0,0,1-2.819,1.675c-.352.079-.708.136-1.063.2H5.168a2.354,2.354,0,0,0-.382-.093A4.994,4.994,0,0,1,1.155,56.9,6.215,6.215,0,0,1,0,54.079v-.805c.212-1.858,1.38-3.116,2.632-4.362q8.7-8.655,17.343-17.358c.144-.144.28-.3.5-.53-.2-.167-.4-.3-.558-.457Q13.479,24.123,7.05,17.672a14.33,14.33,0,0,1-1.19-1.323A13.293,13.293,0,0,1,3.39,6.572,23.033,23.033,0,0,1,5.168,0m26.41,29.478L7.131,4.984c-.1.651-.246,1.359-.307,2.075a9.763,9.763,0,0,0,2.758,8.292C15.489,21.194,21.333,27.1,27.2,32.986a3.965,3.965,0,0,1,.377.5l4-4.009m.293,4.912c.052.057.113.13.18.2Q42.136,44.693,52.223,54.8a2.935,2.935,0,0,0,.433.375,1.7,1.7,0,0,0,2.606-.994,1.856,1.856,0,0,0-.671-1.892q-9.989-10-19.971-20c-.117-.117-.247-.22-.344-.307l-2.4,2.415M22.829,33.6c-.094.087-.209.185-.315.291Q13.34,43.078,4.169,52.27a2.811,2.811,0,0,0-.44.527,1.644,1.644,0,0,0,.034,1.843,1.543,1.543,0,0,0,1.736.709,3.068,3.068,0,0,0,1.186-.738Q15.8,45.522,24.878,36.4c.134-.134.26-.275.363-.385L22.829,33.6m11.352-6.76c1.124-.822,2.187-1.694,3.343-2.419a10.61,10.61,0,0,1,4.019-1.032,4.973,4.973,0,0,0,2.87-1.692l-7.291-7.306a4.829,4.829,0,0,0-1.738,3.182,9.585,9.585,0,0,1-3.213,6.642,3.594,3.594,0,0,0-.289.317l2.3,2.309"/>
  </g>
</svg>
