<svg xmlns="http://www.w3.org/2000/svg" xmlns:xlink="http://www.w3.org/1999/xlink" width="14.17" height="10.519" viewBox="0 0 14.17 10.519">
  <defs>
    <clipPath id="clip-path">
      <rect id="Rectangle_8" data-name="Rectangle 8" width="14.17" height="10.519" fill="#92929d"/>
    </clipPath>
  </defs>
  <g id="Group_15" data-name="Group 15" clip-path="url(#clip-path)">
    <path id="Path_36" data-name="Path 36" d="M14.17,10.322a.382.382,0,0,1-.376.2q-6.71-.005-13.419,0c-.032,0-.065,0-.1,0A.278.278,0,0,1,0,10.243a.273.273,0,0,1,.281-.279c.452,0,.9,0,1.356,0H2.08a1.741,1.741,0,0,1-.42-1.1c-.043,0-.082-.007-.122-.007H.873A.832.832,0,0,1,0,7.988c0-.194,0-.387,0-.581Q0,4.163,0,.919A.838.838,0,0,1,.918,0H8.665a.837.837,0,0,1,.911.912q0,.844,0,1.688v.167h.156c.7,0,1.393,0,2.089,0a.862.862,0,0,1,.841.516q.689,1.385,1.385,2.767c.043.086.082.174.123.261V8.163a.92.92,0,0,1-.51.632c-.027.012-.041.074-.043.114a1.69,1.69,0,0,1-.346.958c-.02.026-.035.055-.061.1.208,0,.4.009.585,0a.363.363,0,0,1,.375.2ZM.554,7.748c0,.084,0,.148,0,.212,0,.244.1.341.346.342s.489,0,.733,0A.157.157,0,0,0,1.8,8.19a1.594,1.594,0,0,1,1.5-.989,1.592,1.592,0,0,1,1.525.978.179.179,0,0,0,.191.126c1.286,0,2.573,0,3.859,0,.044,0,.088,0,.14-.006V8.146q0-3.61,0-7.22c0-.285-.088-.372-.371-.372H.919C.645.553.554.644.554.917q0,2.511,0,5.021v.149c.276,0,.529,0,.782,0a.284.284,0,0,1,.324.321q0,.5,0,1.01c0,.226-.1.328-.331.329-.253,0-.506,0-.775,0M9.586,3.321V8.3c.236,0,.461,0,.687,0a.148.148,0,0,0,.162-.106,1.661,1.661,0,0,1,3.009-.078c.019.035.037.071.055.106l.044.008a1.034,1.034,0,0,0,.07-.244c.009-.253,0-.507,0-.761V6.641h-3.14c-.248,0-.347-.1-.347-.341q0-1.045,0-2.089c0-.237.1-.337.336-.337h1.872a3.578,3.578,0,0,0-.228-.431.312.312,0,0,0-.218-.117c-.765-.008-1.53-.005-2.306-.005m-4.6,5.541a1.731,1.731,0,0,1-.417,1.092h6.144a1.729,1.729,0,0,1-.42-1.092Zm8.457-2.779c-.273-.546-.534-1.073-.8-1.6A.177.177,0,0,0,12.5,4.43c-.4,0-.8,0-1.2,0h-.611V6.082ZM3.313,9.962a1.107,1.107,0,1,0-1.1-1.119,1.11,1.11,0,0,0,1.1,1.119m8.637,0a1.107,1.107,0,1,0-1.1-1.116,1.11,1.11,0,0,0,1.1,1.116M.562,7.186H1.1V6.648H.562Z" transform="translate(0 0.001)" fill="#92929d"/>
    <path id="Path_37" data-name="Path 37" d="M106.835,45.465H105.19a.857.857,0,0,1-.124,0,.275.275,0,0,1,0-.545.7.7,0,0,1,.11,0h3.4a.281.281,0,0,1,.294.282.277.277,0,0,1-.291.27c-.184,0-.368,0-.553,0h-1.188" transform="translate(-100.952 -43.251)" fill="#92929d"/>
    <path id="Path_38" data-name="Path 38" d="M136.233,74.85h1.132c.208,0,.338.111.335.282s-.13.271-.332.271H135.1c-.209,0-.338-.11-.334-.282s.128-.27.332-.271h1.132" transform="translate(-129.786 -72.082)" fill="#92929d"/>
    <path id="Path_39" data-name="Path 39" d="M75.154,45.494a.276.276,0,1,1,.282-.276.279.279,0,0,1-.282.276" transform="translate(-72.116 -43.281)" fill="#92929d"/>
    <path id="Path_40" data-name="Path 40" d="M75.428,224.569a.553.553,0,1,1-.557.549.555.555,0,0,1,.557-.549" transform="translate(-72.103 -216.266)" fill="#92929d"/>
    <path id="Path_41" data-name="Path 41" d="M308.961,225.675a.553.553,0,1,1,.556-.55.555.555,0,0,1-.556.55" transform="translate(-297.008 -216.266)" fill="#92929d"/>
  </g>
</svg>
