<svg xmlns="http://www.w3.org/2000/svg" width="29.495" height="36.22" viewBox="0 0 29.495 36.22">
  <path id="apple" d="M29.916,22.247a8.2,8.2,0,0,1,3.91-6.9,8.454,8.454,0,0,0-6.624-3.59c-2.819-.286-5.5,1.661-6.937,1.661s-3.637-1.619-5.977-1.576A8.857,8.857,0,0,0,6.8,16.385C3.6,21.927,5.981,30.141,9.094,34.637c1.521,2.2,3.336,4.673,5.718,4.582,2.293-.091,3.161-1.483,5.933-1.483s3.553,1.485,5.98,1.44c2.469-.047,4.032-2.245,5.542-4.449a19.984,19.984,0,0,0,2.51-5.153,8,8,0,0,1-4.861-7.325ZM25.355,8.786A7.976,7.976,0,0,0,27.239,3a8.112,8.112,0,0,0-5.333,2.743,7.59,7.59,0,0,0-1.923,5.6,6.714,6.714,0,0,0,5.373-2.563Z" transform="translate(-5.283 -3.001)"/>
</svg>
