<svg id="Group_14" data-name="Group 14" xmlns="http://www.w3.org/2000/svg" xmlns:xlink="http://www.w3.org/1999/xlink" width="73.877" height="50.793" viewBox="0 0 73.877 50.793">
  <defs>
    <clipPath id="clip-path">
      <rect id="Rectangle_7" data-name="Rectangle 7" width="73.877" height="50.793" fill="none"/>
    </clipPath>
  </defs>
  <g id="Group_13" data-name="Group 13" clip-path="url(#clip-path)">
    <path id="Path_25" data-name="Path 25" d="M0,81.393a23.41,23.41,0,0,1,1.093-3.4,10.375,10.375,0,0,1,8.536-5.827c.952-.125,1.9-.3,2.845-.458A3.655,3.655,0,0,0,15.2,69.792c1.751-3.093,3.529-6.17,5.287-9.259a10.5,10.5,0,0,1,2.86-3.3c.695-.517,1.347-.485,1.782.072s.252,1.137-.348,1.756a16.507,16.507,0,0,0-2.351,2.78c-1.755,2.894-3.417,5.846-5.054,8.81a6.258,6.258,0,0,1-4.947,3.4,39.636,39.636,0,0,0-4.039.722,18.2,18.2,0,0,0-2.365.907l.057.227c.587,0,1.175-.006,1.762,0,1,.013,1.431.477,1.385,1.49a5.782,5.782,0,0,1-5.469,5.422c-.452.02-.905,0-1.4,0a38.558,38.558,0,0,0,.029,4.063A3.25,3.25,0,0,0,5.4,89.727c1.266.081,2.54.017,3.74.017a25.2,25.2,0,0,1,.383-3.21,7.659,7.659,0,0,1,4.688-5.387c.915-.392,1.536-.213,1.839.484.294.676-.034,1.251-.936,1.64a5.757,5.757,0,0,0,.617,10.87,5.483,5.483,0,0,0,5.589-1.413,5.579,5.579,0,0,0,1.563-5.62c-.039-.163-.1-.322-.134-.486a1.146,1.146,0,0,1,.785-1.416,1.06,1.06,0,0,1,1.373.728c.229,1.094.316,2.217.455,3.329a3.255,3.255,0,0,1-.024.5h1.742c2.14,0,4.279.016,6.418-.019a1.659,1.659,0,0,0,.877-.415A7.941,7.941,0,0,0,36.43,86.34,4.164,4.164,0,0,1,40.8,84.016a4.365,4.365,0,0,1,3.877,2.9,1.375,1.375,0,0,0,.9.876A4.6,4.6,0,0,1,44,96.674q-3.028.054-6.058,0a4.551,4.551,0,0,1-4.359-3.633c-.065-.3-.109-.606-.175-.972h-4.6c-1.226,0-2.452.014-3.678-.008a.762.762,0,0,0-.781.455,8.054,8.054,0,0,1-14.13-.024.992.992,0,0,0-.708-.4c-1.176-.042-2.355-.014-3.533-.02A5.758,5.758,0,0,1,.119,87.417,1.376,1.376,0,0,0,0,87.163V81.393M40.966,94.376h2.813c.048,0,.1,0,.144,0a2.309,2.309,0,0,0,.188-4.6c-1.112-.148-1.272-.308-1.42-1.417A2.333,2.333,0,0,0,40.3,86.3a2.261,2.261,0,0,0-2.2,2.234,1.421,1.421,0,0,1-.933,1.45,2.266,2.266,0,0,0-1.352,2.524,2.311,2.311,0,0,0,2.333,1.864c.937.016,1.875,0,2.813,0M6.618,78.221c-.94,0-1.863-.007-2.786.008a.459.459,0,0,0-.348.187c-.328.664-.629,1.342-.961,2.066,2.227.155,3.708-.679,4.1-2.261" transform="translate(0 -45.908)"/>
    <path id="Path_26" data-name="Path 26" d="M233.882,82.417a37.487,37.487,0,0,0,4.029-.03,3.32,3.32,0,0,0,2.849-3.017,7.009,7.009,0,0,0,.018-.72c0-1.006,0-2.011,0-3.107-.711,0-1.375,0-2.039,0-.887-.008-1.218-.254-1.436-1.1-.365-1.417-.727-2.836-1.07-4.259a1.167,1.167,0,0,1,1.239-1.567c.672-.017,1.345-.016,2.017-.025.014,0,.029-.03.154-.173a10.342,10.342,0,0,0-1.461-.683c-1.128-.33-2.272-.608-3.418-.869a6.228,6.228,0,0,1-4.239-3.177c-1.7-3.037-3.462-6.042-5.172-9.074a8.2,8.2,0,0,0-7.733-4.473c-2.187.023-4.375.007-6.562,0-.91,0-1.437-.432-1.438-1.152s.525-1.151,1.435-1.153c2.284,0,4.567-.019,6.85,0a10.243,10.243,0,0,1,9.274,5.338c1.814,3.083,3.577,6.2,5.326,9.318a4,4,0,0,0,2.829,2.12c1.127.231,2.238.545,3.352.838a5.765,5.765,0,0,1,4.394,5.644q.028,3.93,0,7.86a5.763,5.763,0,0,1-5.819,5.809c-1.226.013-2.452.019-3.677-.007a.76.76,0,0,0-.777.465A8.076,8.076,0,0,1,217.7,80.615a8.075,8.075,0,0,1,16-.727c.128.822.123,1.665.181,2.529m-8.105-6.873a5.77,5.77,0,1,0,5.767,5.716,5.777,5.777,0,0,0-5.767-5.716m14.968-4.575H238.81l.562,2.231h1.372Z" transform="translate(-169.22 -38.616)"/>
    <path id="Path_27" data-name="Path 27" d="M106.155,12.7v-1.12c-.226-.044-.432-.085-.639-.123a4.606,4.606,0,0,1,1.269-9.124.837.837,0,0,0,.851-.319,5.75,5.75,0,0,1,10.108,4.021,5.748,5.748,0,0,1-4.052,5.241l-.533.169v1.248c.353,0,.707-.013,1.059,0a1.121,1.121,0,0,1,1.207,1.159q.024,5.77,0,11.539c0,.73-.5,1.135-1.295,1.143-1.226.013-2.452,0-3.678,0q-6.527,0-13.054,0c-.574,0-1.112-.034-1.435-.609s-.046-1.054.246-1.54c1.586-2.633,3.222-5.238,4.728-7.917,1.169-2.08,2.707-3.535,5.218-3.78m6.913,11.519V14.84a6.544,6.544,0,0,0-1.285.568,3.385,3.385,0,0,1-4.207.021,1.862,1.862,0,0,0-1.728-.356,3.546,3.546,0,0,0-2.412,1.78c-1.364,2.287-2.74,4.566-4.107,6.85a5.213,5.213,0,0,0-.234.514ZM108.5,11.548h0c0,.336-.007.672,0,1.008a1.157,1.157,0,0,0,1.149,1.283,1.171,1.171,0,0,0,1.149-1.229c.028-.623.01-1.248.015-1.872.01-1.107.312-1.423,1.442-1.515a3.461,3.461,0,1,0-3.262-5.153c-.578.939-.924,1.1-1.8.744a2.272,2.272,0,0,0-2.645.507,2.206,2.206,0,0,0-.475,2.463,2.331,2.331,0,0,0,2.286,1.441c2.026.015,2.151.151,2.144,2.178,0,.048,0,.1,0,.144" transform="translate(-77.349 0)"/>
    <path id="Path_28" data-name="Path 28" d="M211.892,68.106c0,.333,0,.592,0,.852q0,4.65,0,9.3c0,.848-.449,1.368-1.145,1.372s-1.157-.514-1.158-1.358q-.009-5.552,0-11.1c0-.951.418-1.376,1.355-1.379,2.547-.008,5.1-.035,7.642.008a5.437,5.437,0,0,1,4.766,2.649c1.91,3.081,3.756,6.2,5.607,9.32a1.155,1.155,0,0,1-1.082,1.865c-1.826.018-3.652,0-5.595,0,0,.68,0,1.341,0,2a3.466,3.466,0,1,1-6.907,0,2.659,2.659,0,0,0-.954-2.248,4.452,4.452,0,0,1-.805-5.43,4.613,4.613,0,0,1,8.65,1.894c.028.454,0,.91,0,1.42h3.6c0-.039.03-.1.011-.129-1.489-2.494-2.965-5-4.481-7.473a3.091,3.091,0,0,0-2.628-1.55c-2.256-.053-4.514-.016-6.878-.016m8.079,10.853c0-.887.008-1.774,0-2.661a2.3,2.3,0,0,0-4.339-1.18,2.247,2.247,0,0,0,.667,2.893,3.548,3.548,0,0,1,1.367,3.018c-.009.239-.007.48,0,.719a1.237,1.237,0,0,0,1.191,1.344,1.186,1.186,0,0,0,1.112-1.329c.011-.935,0-1.87,0-2.8" transform="translate(-169.188 -53.098)"/>
    <path id="Path_29" data-name="Path 29" d="M89.8,149.829a4.724,4.724,0,0,1,5.43-4.905,1.392,1.392,0,0,0,.957-.238,4.62,4.62,0,1,1,1.972,8.177,1.479,1.479,0,0,0-.947.294,4.513,4.513,0,0,1-4.9.409,4.378,4.378,0,0,1-2.512-3.738m11.57-1.537a2.267,2.267,0,0,0-1.512-2.151,2.291,2.291,0,0,0-2.6.725c-.733.866-.9.909-1.961.492a2.3,2.3,0,1,0,.88,3.592c.778-.9.881-.92,2.026-.489a2.3,2.3,0,0,0,3.163-2.168" transform="translate(-72.494 -116.013)"/>
    <path id="Path_30" data-name="Path 30" d="M318.323,63.331a3.458,3.458,0,1,1-3.424-3.456,3.474,3.474,0,0,1,3.424,3.456m-3.458,1.151a1.149,1.149,0,1,0-1.148-1.132,1.16,1.16,0,0,0,1.148,1.132" transform="translate(-251.387 -48.335)"/>
    <path id="Path_31" data-name="Path 31" d="M18.908,99.254a3.458,3.458,0,1,1-3.432-3.448,3.474,3.474,0,0,1,3.432,3.448M16.6,99.3a1.149,1.149,0,1,0-1.163,1.118A1.16,1.16,0,0,0,16.6,99.3" transform="translate(-9.681 -77.341)"/>
    <path id="Path_32" data-name="Path 32" d="M75.344,203.584a3.458,3.458,0,1,1-3.47,3.408,3.474,3.474,0,0,1,3.47-3.408m.012,2.311a1.15,1.15,0,1,0,1.126,1.155,1.159,1.159,0,0,0-1.126-1.155" transform="translate(-58.021 -164.345)"/>
    <path id="Path_33" data-name="Path 33" d="M175.935,145.943c-.361,0-.722.018-1.081,0a1.149,1.149,0,0,1-1.163-1.134,1.127,1.127,0,0,1,1.133-1.157c.768-.031,1.539-.029,2.307,0a1.146,1.146,0,1,1,.03,2.291c-.407.027-.817.005-1.225.006" transform="translate(-140.214 -115.945)"/>
    <path id="Path_34" data-name="Path 34" d="M289.722,145.94c-.385,0-.771.024-1.153-.006a1.139,1.139,0,0,1-1.1-1.119,1.125,1.125,0,0,1,1.124-1.166c.792-.032,1.587-.033,2.379,0a1.123,1.123,0,0,1,1.1,1.116,1.143,1.143,0,0,1-1.125,1.169c-.407.028-.817.005-1.225,0" transform="translate(-232.063 -115.943)"/>
    <path id="Path_35" data-name="Path 35" d="M282.4,207.007a3.459,3.459,0,1,1-3.454-3.424,3.473,3.473,0,0,1,3.454,3.424m-3.471-1.115a1.15,1.15,0,1,0,1.16,1.121,1.161,1.161,0,0,0-1.16-1.121" transform="translate(-222.389 -164.345)"/>
  </g>
</svg>
