<svg id="Group_16" data-name="Group 16" xmlns="http://www.w3.org/2000/svg" xmlns:xlink="http://www.w3.org/1999/xlink" width="70.74" height="52.515" viewBox="0 0 70.74 52.515">
  <defs>
    <clipPath id="clip-path">
      <rect id="Rectangle_8" data-name="Rectangle 8" width="70.74" height="52.515" fill="#36c1a7"/>
    </clipPath>
  </defs>
  <g id="Group_15" data-name="Group 15" clip-path="url(#clip-path)">
    <path id="Path_36" data-name="Path 36" d="M70.74,51.534a1.907,1.907,0,0,1-1.88.981q-33.5-.027-66.993-.014c-.161,0-.323.006-.483,0A1.39,1.39,0,0,1,.007,51.138a1.362,1.362,0,0,1,1.4-1.393c2.256-.019,4.512-.008,6.768-.008h2.2a8.692,8.692,0,0,1-2.1-5.49c-.212-.013-.412-.034-.611-.035-1.1,0-2.21,0-3.315,0A4.151,4.151,0,0,1,0,39.882c-.005-.967,0-1.934,0-2.9Q0,20.786,0,4.59C0,1.684,1.681,0,4.58,0Q23.919,0,43.257,0A4.178,4.178,0,0,1,47.8,4.554q0,4.213,0,8.426v.836h.778c3.476,0,6.953.016,10.429-.006a4.3,4.3,0,0,1,4.2,2.576Q66.651,23.3,70.124,30.2c.215.429.411.868.616,1.3v9.257a4.593,4.593,0,0,1-2.548,3.154c-.133.061-.206.37-.216.569a8.435,8.435,0,0,1-1.729,4.781c-.1.13-.177.277-.3.477,1.04,0,1.985.044,2.923-.013a1.811,1.811,0,0,1,1.874.98ZM2.765,38.685c0,.417,0,.737,0,1.057.007,1.221.493,1.7,1.729,1.705,1.22,0,2.441-.023,3.66.013a.783.783,0,0,0,.851-.569,7.96,7.96,0,0,1,7.508-4.94,7.947,7.947,0,0,1,7.613,4.882.893.893,0,0,0,.953.627c6.422-.019,12.844-.012,19.266-.014.221,0,.442-.02.7-.032v-.745q0-18.023,0-36.046c0-1.421-.437-1.86-1.853-1.86H4.587c-1.366,0-1.822.455-1.822,1.819q0,12.533,0,25.067V30.4c1.375,0,2.641-.006,3.906,0A1.417,1.417,0,0,1,8.289,32q.012,2.521,0,5.041c0,1.13-.516,1.635-1.654,1.641-1.262.006-2.524,0-3.87,0m45.09-22.1V41.448c1.176,0,2.3-.022,3.428.011a.741.741,0,0,0,.81-.529,8.291,8.291,0,0,1,15.021-.388c.1.174.184.352.276.528l.219.038a5.163,5.163,0,0,0,.35-1.219c.046-1.265.017-2.532.017-3.8V33.158h-.824q-7.426,0-14.852,0c-1.24,0-1.73-.481-1.731-1.7q0-5.216,0-10.431c0-1.181.5-1.68,1.679-1.682q4.283-.006,8.566,0H61.6a17.859,17.859,0,0,0-1.139-2.152,1.559,1.559,0,0,0-1.091-.583c-3.82-.042-7.64-.026-11.511-.026M24.885,44.242A8.643,8.643,0,0,1,22.8,49.691H53.471a8.63,8.63,0,0,1-2.1-5.449ZM67.1,30.368C65.744,27.642,64.439,25.01,63.1,22.4a.884.884,0,0,0-.674-.278c-2-.022-4-.012-6.006-.013H53.371v8.262ZM16.537,49.734a5.525,5.525,0,1,0-5.481-5.585,5.542,5.542,0,0,0,5.481,5.585m43.121,0a5.525,5.525,0,1,0-5.5-5.569,5.544,5.544,0,0,0,5.5,5.569M2.8,35.877H5.478V33.19H2.8Z" transform="translate(0 0.001)" fill="#36c1a7"/>
    <path id="Path_37" data-name="Path 37" d="M114.847,47.675h-8.208a4.279,4.279,0,0,1-.62-.018A1.375,1.375,0,0,1,106,44.934a3.5,3.5,0,0,1,.55-.021h16.693c.092,0,.184,0,.276,0a1.4,1.4,0,0,1,1.467,1.406,1.385,1.385,0,0,1-1.45,1.35c-.919.019-1.839.005-2.759.006h-5.932" transform="translate(-85.479 -36.622)" fill="#36c1a7"/>
    <path id="Path_38" data-name="Path 38" d="M142.08,74.851c1.884,0,3.769,0,5.653,0,1.04,0,1.689.556,1.67,1.409-.019.83-.647,1.351-1.659,1.351q-5.653,0-11.306,0c-1.045,0-1.686-.55-1.669-1.409.017-.834.641-1.349,1.657-1.352,1.885,0,3.769,0,5.653,0" transform="translate(-109.894 -61.034)" fill="#36c1a7"/>
    <path id="Path_39" data-name="Path 39" d="M76.229,47.7a1.377,1.377,0,1,1,1.408-1.379A1.391,1.391,0,0,1,76.229,47.7" transform="translate(-61.063 -36.648)" fill="#36c1a7"/>
    <path id="Path_40" data-name="Path 40" d="M77.652,224.569a2.761,2.761,0,1,1-2.781,2.74,2.77,2.77,0,0,1,2.781-2.74" transform="translate(-61.051 -183.119)" fill="#36c1a7"/>
    <path id="Path_41" data-name="Path 41" d="M311.156,230.091a2.761,2.761,0,1,1,2.776-2.747,2.768,2.768,0,0,1-2.776,2.747" transform="translate(-251.486 -183.119)" fill="#36c1a7"/>
  </g>
</svg>
