<svg xmlns="http://www.w3.org/2000/svg" width="11.62" height="14.2" viewBox="0 0 10.539 14.034">
  <path id="certificatealt" d="M9.223,5.263l1.316,1.412-1.85.576.439,1.877-1.741-.4,1.4,4.454A.817.817,0,0,1,8.4,13.9l-.713-.713-.85.85a.86.86,0,0,1-.494-.308.841.841,0,0,1-.192-.541l-.891-2.823-.877,2.823a.845.845,0,0,1-.192.541.855.855,0,0,1-.494.308l-.85-.85-.713.713a.817.817,0,0,1-.384-.713l1.4-4.454-1.741.4L1.85,7.25,0,6.674,1.316,5.263,0,3.851l1.85-.562L1.412,1.412l1.877.439L3.851,0,5.263,1.316,6.674,0,7.25,1.85l1.877-.439L8.689,3.289l1.85.562ZM5.27,2.631a2.541,2.541,0,0,0-1.864.774,2.541,2.541,0,0,0-.774,1.864,2.541,2.541,0,0,0,.774,1.864,2.541,2.541,0,0,0,1.864.774,2.541,2.541,0,0,0,1.864-.774,2.541,2.541,0,0,0,.774-1.864,2.541,2.541,0,0,0-.774-1.864A2.541,2.541,0,0,0,5.27,2.631Z" fill="#d9d9d9"/>
</svg>
