<svg id="Group_330" data-name="Group 330" xmlns="http://www.w3.org/2000/svg" width="66.408" height="66.408" viewBox="0 0 66.408 66.408">
  <path id="Oval" d="M33.2,0A33.2,33.2,0,1,1,0,33.2,33.2,33.2,0,0,1,33.2,0Z" fill="#f6d058"/>
  <path id="Icon_ionic-ios-speedometer" data-name="Icon ionic-ios-speedometer" d="M21.267,4.5A19.011,19.011,0,0,0,7.03,36.116c.093.1.178.2.272.3a2.138,2.138,0,0,0,3.15-.008,14.7,14.7,0,0,1,21.632,0,2.138,2.138,0,0,0,3.15.008l.272-.3A19.011,19.011,0,0,0,21.267,4.5ZM20.078,8.4a1.189,1.189,0,1,1,2.377,0v3.056a1.189,1.189,0,1,1-2.377,0ZM9.212,24.7H6.155a1.189,1.189,0,0,1,0-2.377H9.212a1.189,1.189,0,1,1,0,2.377Zm4.372-8.872h0a1.2,1.2,0,0,1-1.681,0L9.738,13.669a1.2,1.2,0,0,1,0-1.681h0a1.2,1.2,0,0,1,1.681,0l2.165,2.165A1.189,1.189,0,0,1,13.584,15.825Zm13.634,2.929-4.033,6.41a2.632,2.632,0,0,1-.594.594A2.556,2.556,0,0,1,19.62,21.6l6.41-4.033a.868.868,0,0,1,.993,0A.854.854,0,0,1,27.218,18.754Zm3.413-2.929a1.2,1.2,0,0,1-1.681,0h0a1.2,1.2,0,0,1,0-1.681l2.165-2.165a1.2,1.2,0,0,1,1.681,0h0a1.2,1.2,0,0,1,0,1.681ZM36.379,24.7H33.322a1.189,1.189,0,0,1,0-2.377h3.056a1.189,1.189,0,0,1,0,2.377Z" transform="translate(11.937 11.196)" fill="#fff"/>
</svg>
