<svg xmlns="http://www.w3.org/2000/svg" width="16.961" height="16.222" viewBox="0 0 16.961 16.222">
  <path id="star" d="M15.96,5.9a.693.693,0,0,1-.25.46l-3.482,3.4.825,4.8a1.425,1.425,0,0,1,.01.192.566.566,0,0,1-.1.34.339.339,0,0,1-.293.139.774.774,0,0,1-.383-.115L7.98,12.843,3.674,15.107a.814.814,0,0,1-.383.115.348.348,0,0,1-.3-.139.568.568,0,0,1-.1-.34,1.568,1.568,0,0,1,.019-.192l.825-4.8L.24,6.359A.731.731,0,0,1,0,5.9q0-.355.537-.441l4.815-.7L7.51.393Q7.693,0,7.98,0t.47.393l2.158,4.364,4.815.7q.537.086.537.441Z" transform="translate(0.5 0.5)" fill="none" stroke="#3ac6ad" stroke-width="1"/>
</svg>
