<svg xmlns="http://www.w3.org/2000/svg" width="66.408" height="66.408" viewBox="0 0 66.408 66.408"> 
    <path id="Oval" d="M33.2,0A33.2,33.2,0,1,1,0,33.2,33.2,33.2,0,0,1,33.2,0Z" fill="#f6d058"/>
    <g clip-path="url(#id1)" >
        <path fill="rgb(15.689087%, 46.669006%, 46.669006%)" d="M 65.566406 48.816406 C 65.492188 46.792969 64.355469 44.957031 62.492188 43.601562 C 61.632812 42.976562 60.613281 42.453125 59.476562 42.0625 C 61.144531 40.679688 62.203125 38.601562 62.203125 36.28125 C 62.203125 32.113281 58.792969 28.738281 54.589844 28.738281 C 50.382812 28.738281 46.972656 32.113281 46.972656 36.28125 C 46.972656 38.601562 48.03125 40.679688 49.699219 42.0625 C 48.5625 42.453125 47.546875 42.976562 46.683594 43.601562 C 44.820312 44.957031 43.6875 46.792969 43.609375 48.816406 C 43.582031 49.527344 43.660156 50.125 43.828125 50.632812 C 46.675781 51.332031 50.449219 51.757812 54.589844 51.757812 C 58.738281 51.757812 62.519531 51.328125 65.371094 50.628906 C 65.523438 50.121094 65.59375 49.523438 65.566406 48.816406 " fill-opacity="1" fill-rule="nonzero"/>
    </g>
    <g clip-path="url(#id2)">
        <path fill="rgb(15.689087%, 46.669006%, 46.669006%)" d="M 41.828125 48.816406 C 41.753906 46.792969 40.617188 44.957031 38.753906 43.601562 C 37.890625 42.976562 36.875 42.453125 35.734375 42.0625 C 37.402344 40.679688 38.464844 38.601562 38.464844 36.28125 C 38.464844 32.113281 35.054688 28.738281 30.847656 28.738281 C 26.640625 28.738281 23.230469 32.113281 23.230469 36.28125 C 23.230469 38.601562 24.292969 40.679688 25.960938 42.0625 C 24.820312 42.453125 23.804688 42.976562 22.945312 43.601562 C 21.082031 44.957031 19.945312 46.792969 19.867188 48.816406 C 19.839844 49.527344 19.921875 50.125 20.085938 50.632812 C 22.9375 51.332031 26.710938 51.757812 30.847656 51.757812 C 34.996094 51.757812 38.777344 51.328125 41.628906 50.628906 C 41.785156 50.121094 41.855469 49.523438 41.828125 48.816406 " fill-opacity="1" fill-rule="nonzero"/>
    </g>
    <g clip-path="url(#id3)">
        <path fill="rgb(25.099182%, 74.899292%, 73.728943%)" d="M 54.390625 53.332031 C 54.308594 51.183594 53.101562 49.230469 51.121094 47.789062 C 50.207031 47.125 49.125 46.570312 47.914062 46.152344 C 49.6875 44.683594 50.8125 42.476562 50.8125 40.003906 C 50.8125 35.578125 47.191406 31.988281 42.71875 31.988281 C 38.246094 31.988281 34.621094 35.578125 34.621094 40.003906 C 34.621094 42.476562 35.75 44.683594 37.523438 46.152344 C 36.3125 46.570312 35.230469 47.125 34.316406 47.789062 C 32.335938 49.230469 31.128906 51.183594 31.046875 53.332031 C 31.015625 54.089844 31.101562 54.722656 31.277344 55.265625 C 34.308594 56.007812 38.316406 56.457031 42.71875 56.457031 C 47.128906 56.457031 51.148438 56.003906 54.179688 55.261719 C 54.34375 54.71875 54.417969 54.085938 54.390625 53.332031 " fill-opacity="1" fill-rule="nonzero"/>
    </g>
</svg>