<svg xmlns="http://www.w3.org/2000/svg" width="65.95" height="14.203" viewBox="0 0 65.95 14.203">
  <g id="Group_105" data-name="Group 105" transform="translate(-205.809 -1812)">
    <path id="Icon_material-payment" data-name="Icon material-payment" d="M18.978,6H4.775A1.762,1.762,0,0,0,3.009,7.775L3,18.427A1.769,1.769,0,0,0,4.775,20.2h14.2a1.769,1.769,0,0,0,1.775-1.775V7.775A1.769,1.769,0,0,0,18.978,6Zm0,12.427H4.775V13.1h14.2Zm0-8.877H4.775V7.775h14.2Z" transform="translate(202.809 1806)" fill="#d9d9d9"/>
    <path id="Icon_material-verified-user" data-name="Icon material-verified-user" d="M10.31,1.5,4.5,4.082V7.956A8.034,8.034,0,0,0,10.31,15.7a8.034,8.034,0,0,0,5.81-7.747V4.082ZM9.019,11.829,6.437,9.247l.91-.91L9.019,10l4.254-4.254.91.917Z" transform="translate(232.081 1810.5)" fill="#d9d9d9"/>
    <path id="certificatealt" d="M9.223,5.263l1.316,1.412-1.85.576.439,1.877-1.741-.4,1.4,4.454A.817.817,0,0,1,8.4,13.9l-.713-.713-.85.85a.86.86,0,0,1-.494-.308.841.841,0,0,1-.192-.541l-.891-2.823-.877,2.823a.845.845,0,0,1-.192.541.855.855,0,0,1-.494.308l-.85-.85-.713.713a.817.817,0,0,1-.384-.713l1.4-4.454-1.741.4L1.85,7.25,0,6.674,1.316,5.263,0,3.851l1.85-.562L1.412,1.412l1.877.439L3.851,0,5.263,1.316,6.674,0,7.25,1.85l1.877-.439L8.689,3.289l1.85.562ZM5.27,2.631a2.541,2.541,0,0,0-1.864.774,2.541,2.541,0,0,0-.774,1.864,2.541,2.541,0,0,0,.774,1.864,2.541,2.541,0,0,0,1.864.774,2.541,2.541,0,0,0,1.864-.774,2.541,2.541,0,0,0,.774-1.864,2.541,2.541,0,0,0-.774-1.864A2.541,2.541,0,0,0,5.27,2.631Z" transform="translate(261.221 1812)" fill="#d9d9d9"/>
  </g>
</svg>
