<svg xmlns="http://www.w3.org/2000/svg" width="66.408" height="66.408" viewBox="0 0 66.408 66.408">
  <g id="Group_327" data-name="Group 327" transform="translate(-934.752 -5259.925)">
    <path id="Oval" d="M33.2,0A33.2,33.2,0,1,1,0,33.2,33.2,33.2,0,0,1,33.2,0Z" transform="translate(934.752 5259.925)" fill="#f6d058"/>
    <g id="shield-fill-check" transform="translate(951.966 5276.939)">
      <path id="Path_142" data-name="Path 142" d="M19.465,1.125a33.116,33.116,0,0,0-6.942,1.3q-3.444.925-6.841,2.012A3.589,3.589,0,0,0,3.207,7.354C1.793,17.711,5.072,25.387,9.05,30.465a27.62,27.62,0,0,0,5.965,5.676A17.182,17.182,0,0,0,17.5,37.588a5.127,5.127,0,0,0,1.964.555,5.111,5.111,0,0,0,1.964-.555,17.182,17.182,0,0,0,2.485-1.447,27.618,27.618,0,0,0,5.968-5.676c3.976-5.078,7.255-12.754,5.842-23.111a3.589,3.589,0,0,0-2.476-2.922q-3.4-1.087-6.841-2.012A33.11,33.11,0,0,0,19.465,1.125Zm7.043,15.68a1.235,1.235,0,1,0-1.747-1.747l-6.529,6.533L15.4,18.76a1.235,1.235,0,0,0-1.747,1.747l3.7,3.7a1.234,1.234,0,0,0,1.747,0Z" transform="translate(-2.872 -1.125)" fill="#fff" fill-rule="evenodd"/>
    </g>
  </g>
</svg>
