<svg id="Group_10" data-name="Group 10" xmlns="http://www.w3.org/2000/svg" xmlns:xlink="http://www.w3.org/1999/xlink" width="53.971" height="54.008" viewBox="0 0 53.971 54.008">
  <defs>
    <clipPath id="clip-path">
      <rect id="Rectangle_5" data-name="Rectangle 5" width="53.971" height="54.008" fill="none"/>
    </clipPath>
  </defs>
  <g id="Group_9" data-name="Group 9" clip-path="url(#clip-path)">
    <path id="Path_21" data-name="Path 21" d="M185.58,35.1c0-4.176-.005-8.351.009-12.527a.886.886,0,0,0-.427-.836A12.5,12.5,0,0,1,186.433.439a1.928,1.928,0,0,1,3,1.782q.014,3.824-.006,7.649c0,.375.084.6.465.7a3.225,3.225,0,0,1,.945.381c1.558,1.062,2.845-.037,4.2-.521.113-.041.172-.372.173-.569.011-2.509.005-5.019.008-7.528A1.951,1.951,0,0,1,198.331.5a12.51,12.51,0,0,1,1.207,21.207.99.99,0,0,0-.475.931q.019,12.256.007,24.512A6.74,6.74,0,1,1,185.6,47.5c-.053-4.135-.011-8.271-.011-12.406Zm0-28.859-.124-.023c-.109.143-.225.281-.326.43a8.634,8.634,0,0,0,2.911,12.351,2.475,2.475,0,0,1,1.408,2.42c-.027,7.93-.014,15.86-.014,23.789,0,.763-.023,1.527.009,2.288a2.9,2.9,0,0,0,3.357,2.715,2.927,2.927,0,0,0,2.415-3.068q0-12.979-.005-25.958a2.153,2.153,0,0,1,1.188-2.057,8.561,8.561,0,0,0,4.476-9.034,8.167,8.167,0,0,0-1.8-4.034v.751c0,1.546,0,3.092,0,4.637a1.992,1.992,0,0,1-1.431,2.124c-1.448.587-2.909,1.145-4.352,1.744a2.431,2.431,0,0,1-1.977-.021c-1.294-.541-2.6-1.048-3.9-1.571-1.583-.636-1.829-1-1.829-2.693V6.236" transform="translate(-150.874 -0.111)"/>
    <path id="Path_22" data-name="Path 22" d="M9.237,41.827l2.941,2.931c1.031-.882,2.1-1.8,3.167-2.707a1.986,1.986,0,0,1,2.69-.221,17.681,17.681,0,0,0,4.753,1.986A2.026,2.026,0,0,1,24.6,46c.1,1.36.217,2.718.329,4.1h3.887a9.4,9.4,0,0,1,1.165-1.431,1.629,1.629,0,0,1,1.874-.1A1.83,1.83,0,0,1,32.9,50.216a3.82,3.82,0,0,1-3.651,3.76q-2.256.067-4.516,0a3.84,3.84,0,0,1-3.645-3.524c-.075-.94-.138-1.882-.243-2.819a.672.672,0,0,0-.339-.454c-1.044-.459-2.1-.9-3.162-1.307a.737.737,0,0,0-.614.083c-.678.534-1.319,1.113-1.978,1.671a3.849,3.849,0,0,1-5.471-.181q-1.4-1.373-2.767-2.77a3.841,3.841,0,0,1-.187-5.382c.557-.659,1.113-1.32,1.688-1.964a.574.574,0,0,0,.107-.735c-.455-1-.864-2.025-1.265-3.051a.543.543,0,0,0-.545-.425c-.9-.048-1.8-.14-2.7-.206a3.849,3.849,0,0,1-3.6-3.763q-.036-2.138,0-4.277a3.85,3.85,0,0,1,3.576-3.783c.9-.068,1.8-.159,2.7-.21a.543.543,0,0,0,.561-.4c.406-1.045.863-2.07,1.261-3.117a.8.8,0,0,0-.1-.66c-.531-.679-1.114-1.318-1.671-1.977a3.847,3.847,0,0,1,.2-5.427Q7.913,7.9,9.309,6.525a3.843,3.843,0,0,1,5.38-.213c.676.569,1.328,1.166,2.023,1.71a.8.8,0,0,0,.663.083q1.543-.585,3.051-1.259a.8.8,0,0,0,.419-.518c.113-.9.172-1.8.238-2.7A3.858,3.858,0,0,1,24.89.011C25.593,0,26.3-.005,27,.012a1.924,1.924,0,0,1,.02,3.847c-.679.02-1.359,0-2.085,0C24.817,5.3,24.7,6.7,24.6,8.1a1.97,1.97,0,0,1-1.677,2.046,18.009,18.009,0,0,0-4.975,2.076A1.942,1.942,0,0,1,15.4,12c-1.088-.92-2.166-1.851-3.2-2.736L9.26,12.2c.819.958,1.7,1.987,2.582,3.021A2.058,2.058,0,0,1,12.1,18.15a17.9,17.9,0,0,0-1.938,4.711A1.981,1.981,0,0,1,8.1,24.6c-1.4.108-2.793.223-4.21.336v4.125c1.405.113,2.8.227,4.192.336a1.977,1.977,0,0,1,2.07,1.722,18.031,18.031,0,0,0,2.025,4.868,1.967,1.967,0,0,1-.208,2.643c-.907,1.072-1.825,2.136-2.733,3.2" transform="translate(0 0)"/>
    <path id="Path_23" data-name="Path 23" d="M97.159,112.034a13.49,13.49,0,0,1-2.484-26.7,3.237,3.237,0,0,1,1.526.039,1.828,1.828,0,0,1,1.2,1.952,1.937,1.937,0,0,1-1.619,1.705,9.512,9.512,0,0,0-6.817,4.867,9.652,9.652,0,0,0,11.288,13.869,3.484,3.484,0,0,1,1.58-.127,1.8,1.8,0,0,1,1.359,1.777,1.918,1.918,0,0,1-1.346,1.871,13.614,13.614,0,0,1-4.683.751" transform="translate(-70.411 -71.54)"/>
  </g>
</svg>
